<!DOCTYPE svg PUBLIC "-//W3C//DTD SVG 20010904//EN" "http://www.w3.org/TR/2001/REC-SVG-20010904/DTD/svg10.dtd">
<svg version="1.0" xmlns="http://www.w3.org/2000/svg" viewBox="0 0 2250 2250" preserveAspectRatio="xMidYMid meet">
<g fill="#c01f24">
 <path d="M935 2224 c-605 -108 -1012 -683 -909 -1285 39 -223 136 -418 293 -582 442 -463 1170 -463 1612 0 361 379 411 948 120 1388 -237 359 -692 555 -1116 479z m417 -208 c159 -40 305 -125 422 -244 70 -72 70 -76 -7 -189 -85 -125 -201 -207 -343 -243 -210 -54 -423 7 -571 163 -37 40 -82 98 -98 130 -28 54 -32 57 -59 51 -85 -18 -188 14 -217 68 -11 20 -7 26 32 61 134 120 312 202 489 227 97 13 244 3 352 -24z m685 -949 c-9 -112 -39 -225 -87 -325 -51 -106 -88 -161 -169 -246 -198 -206 -480 -309 -758 -276 -249 29 -466 150 -618 343 -116 146 -181 313 -192 490 l-6 97 918 0 918 0 -6 -83z"/>
 <path d="M585 920 l-29 -30 59 -60 59 -60 -59 -60 -59 -60 30 -30 30 -30 59 60 59 60 61 -60 61 -60 29 30 29 30 -59 60 -59 60 59 60 59 60 -30 30 -30 30 -59 -60 -59 -60 -61 60 -61 60 -29 -30z"/>
 <path d="M1345 920 l-29 -30 59 -60 59 -60 -59 -60 -59 -60 30 -30 30 -30 59 60 59 60 61 -60 61 -60 29 30 29 30 -59 60 -59 60 59 60 59 60 -30 30 -30 30 -59 -60 -59 -60 -61 60 -61 60 -29 -30z"/>
 </g>
</svg>
