<?xml version="1.0"?>
<svg viewBox="0 0 512 512" xmlns="http://www.w3.org/2000/svg" xmlns:svg="http://www.w3.org/2000/svg">

 <g>
  <path id="svg_1" fill="none" stroke-width="10.597" stroke-dasharray="39.8522" stroke="#808080" d="m482.743469,139.391922a255.283936,255.283936 0 1 1 -88.424469,-98.201591"/>
  <circle id="svg_2" fill="#ffffff" r="197.448539" cx="255.281545" cy="255.28628"/>
  <circle id="svg_4" fill="#000080" r="57.835341" cx="452.735701" cy="57.837715"/>
  <g transform="matrix(0.644589, 0, 0, 0.644589, 1238.18, 1217.75)" id="svg_32">
   <path fill="#000080" transform="matrix(0.273021, 0, 0, 0.273021, 556.819, 551.01)" id="svg_33" d="m-7811.509766,-6384.978027c-605,-108 -1012,-682.999512 -909,-1285.000977c39,-222.999512 136,-417.999512 293,-581.999512c442,-463.000977 1170,-463.000977 1612,0c361,379 411,948.000977 120,1388.000977c-237,358.999512 -692,554.999512 -1116,478.999512zm417,-208c159,-40 305,-125 422,-243.999512c70,-72 70,-76 -7,-189c-85,-125 -201,-207 -343,-243c-210,-54 -423,7 -571,163c-37,40 -82,98 -98,130c-28,54 -32,57 -59,51c-85,-18 -188,14 -217,68c-11,20 -7,26 32,61c134,119.999512 312,201.999512 489,226.999512c97,13 244,3 352,-24zm685,-949.000488c-9,-112.000488 -39,-225 -87,-325c-51,-106 -88,-161 -169,-246c-198,-206.000977 -480,-309.000977 -758,-276.000977c-249,29 -466,150.000977 -618,343.000977c-116,146 -181,313 -192,490l-6,97l918,0l918,0l-6,-83z"/>
   <path transform="matrix(0.273021, 0, 0, 0.273021, 556.819, 551.01)" fill="#000080" id="svg_34" d="m-8161.509766,-7688.979004l-29,-29.999512l59,-60l59,-60l-59,-60l-59,-60l30,-30l30,-30l59,60l59,60l61,-60l61,-60l29,30l29,30l-59,60l-59,60l59,60l59,60l-30,29.999512l-30,30l-59,-59.999512l-59,-60l-61,60l-61,59.999512l-29,-30z"/>
   <path transform="matrix(0.273021, 0, 0, 0.273021, 556.819, 551.01)" fill="#000080" id="svg_35" d="m-7401.509766,-7688.979004l-29,-29.999512l59,-60l59,-60l-59,-60l-59,-60l30,-30l30,-30l59,60l59,60l61,-60l61,-60l29,30l29,30l-59,60l-59,60l59,60l59,60l-30,29.999512l-30,30l-59,-59.999512l-59,-60l-61,60l-61,59.999512l-29,-30z"/>
  </g>
 </g>
</svg>
